<svg width="13" height="12" viewBox="0 0 13 12" fill="none" xmlns="http://www.w3.org/2000/svg">
<path d="M0.666504 0.833313C0.666504 0.700705 0.719182 0.573528 0.81295 0.47976C0.906719 0.385991 1.0339 0.333313 1.1665 0.333313H1.5385C2.17184 0.333313 2.55184 0.759313 2.7685 1.15531C2.91317 1.41931 3.01784 1.72531 3.09984 2.00265C3.12202 2.0009 3.14426 2.00001 3.1665 1.99998H11.4985C12.0518 1.99998 12.4518 2.52931 12.2998 3.06198L11.0812 7.33465C10.9719 7.71788 10.7407 8.05508 10.4227 8.29519C10.1046 8.53529 9.71701 8.66522 9.3185 8.66531H5.35317C4.9515 8.66533 4.56094 8.53343 4.24152 8.28989C3.9221 8.04635 3.6915 7.70465 3.58517 7.31731L3.0785 5.46931L2.2385 2.63731L2.23784 2.63198C2.13384 2.25398 2.0365 1.89998 1.89117 1.63598C1.75184 1.37931 1.63984 1.33331 1.53917 1.33331H1.1665C1.0339 1.33331 0.906719 1.28063 0.81295 1.18687C0.719182 1.0931 0.666504 0.965921 0.666504 0.833313ZM4.0485 5.22665L4.54917 7.05265C4.64917 7.41398 4.97784 7.66531 5.35317 7.66531H9.3185C9.49964 7.66531 9.67585 7.60629 9.82044 7.49718C9.96503 7.38808 10.0701 7.23483 10.1198 7.06065L11.2778 2.99998H3.38984L4.03917 5.19131L4.0485 5.22665Z" fill="#151875"/>
<path d="M6.33317 10.6666C6.33317 11.0203 6.19269 11.3594 5.94265 11.6095C5.6926 11.8595 5.35346 12 4.99984 12C4.64622 12 4.30708 11.8595 4.05703 11.6095C3.80698 11.3594 3.6665 11.0203 3.6665 10.6666C3.6665 10.313 3.80698 9.97389 4.05703 9.72384C4.30708 9.47379 4.64622 9.33331 4.99984 9.33331C5.35346 9.33331 5.6926 9.47379 5.94265 9.72384C6.19269 9.97389 6.33317 10.313 6.33317 10.6666ZM5.33317 10.6666C5.33317 10.5782 5.29805 10.4935 5.23554 10.4309C5.17303 10.3684 5.08824 10.3333 4.99984 10.3333C4.91143 10.3333 4.82665 10.3684 4.76413 10.4309C4.70162 10.4935 4.6665 10.5782 4.6665 10.6666C4.6665 10.7551 4.70162 10.8398 4.76413 10.9023C4.82665 10.9649 4.91143 11 4.99984 11C5.08824 11 5.17303 10.9649 5.23554 10.9023C5.29805 10.8398 5.33317 10.7551 5.33317 10.6666Z" fill="#151875"/>
<path d="M10.9997 10.6666C10.9997 11.0203 10.8592 11.3594 10.6092 11.6095C10.3591 11.8595 10.02 12 9.66634 12C9.31272 12 8.97358 11.8595 8.72353 11.6095C8.47348 11.3594 8.33301 11.0203 8.33301 10.6666C8.33301 10.313 8.47348 9.97389 8.72353 9.72384C8.97358 9.47379 9.31272 9.33331 9.66634 9.33331C10.02 9.33331 10.3591 9.47379 10.6092 9.72384C10.8592 9.97389 10.9997 10.313 10.9997 10.6666ZM9.99967 10.6666C9.99967 10.5782 9.96456 10.4935 9.90204 10.4309C9.83953 10.3684 9.75475 10.3333 9.66634 10.3333C9.57794 10.3333 9.49315 10.3684 9.43064 10.4309C9.36813 10.4935 9.33301 10.5782 9.33301 10.6666C9.33301 10.7551 9.36813 10.8398 9.43064 10.9023C9.49315 10.9649 9.57794 11 9.66634 11C9.75475 11 9.83953 10.9649 9.90204 10.9023C9.96456 10.8398 9.99967 10.7551 9.99967 10.6666Z" fill="#151875"/>
</svg>
