<svg width="12" height="12" viewBox="0 0 12 12" fill="none" xmlns="http://www.w3.org/2000/svg">
<path d="M4.66683 1.33337H2.00016C1.63197 1.33337 1.3335 1.63185 1.3335 2.00004V4.66671C1.3335 5.0349 1.63197 5.33337 2.00016 5.33337H4.66683C5.03502 5.33337 5.3335 5.0349 5.3335 4.66671V2.00004C5.3335 1.63185 5.03502 1.33337 4.66683 1.33337Z" fill="#151875"/>
<path d="M9.99984 1.33337H7.33317C6.96498 1.33337 6.6665 1.63185 6.6665 2.00004V4.66671C6.6665 5.0349 6.96498 5.33337 7.33317 5.33337H9.99984C10.368 5.33337 10.6665 5.0349 10.6665 4.66671V2.00004C10.6665 1.63185 10.368 1.33337 9.99984 1.33337Z" fill="#151875"/>
<path d="M4.66683 6.66663H2.00016C1.63197 6.66663 1.3335 6.9651 1.3335 7.33329V9.99996C1.3335 10.3681 1.63197 10.6666 2.00016 10.6666H4.66683C5.03502 10.6666 5.3335 10.3681 5.3335 9.99996V7.33329C5.3335 6.9651 5.03502 6.66663 4.66683 6.66663Z" fill="#151875"/>
<path d="M9.99984 6.66663H7.33317C6.96498 6.66663 6.6665 6.9651 6.6665 7.33329V9.99996C6.6665 10.3681 6.96498 10.6666 7.33317 10.6666H9.99984C10.368 10.6666 10.6665 10.3681 10.6665 9.99996V7.33329C10.6665 6.9651 10.368 6.66663 9.99984 6.66663Z" fill="#151875"/>
</svg>
