<svg width="14" height="14" viewBox="0 0 14 14" fill="none" xmlns="http://www.w3.org/2000/svg">
<path d="M12.4399 2.07335C11.7321 1.36536 10.7937 0.934902 9.79534 0.860272C8.79701 0.785642 7.80505 1.07179 6.99986 1.66668C6.15163 1.03578 5.09585 0.749693 4.04514 0.866043C2.99442 0.982394 2.02682 1.49254 1.33717 2.29374C0.647529 3.09495 0.287073 4.1277 0.328392 5.18403C0.369711 6.24036 0.809737 7.2418 1.55986 7.98668L6.52652 12.9534C6.5885 13.0158 6.66223 13.0654 6.74347 13.0993C6.82471 13.1331 6.91185 13.1505 6.99986 13.1505C7.08787 13.1505 7.175 13.1331 7.25624 13.0993C7.33748 13.0654 7.41122 13.0158 7.47319 12.9534L12.4399 7.98668C12.8283 7.5985 13.1364 7.13758 13.3467 6.63026C13.5569 6.12294 13.6651 5.57917 13.6651 5.03002C13.6651 4.48086 13.5569 3.93709 13.3467 3.42977C13.1364 2.92246 12.8283 2.46154 12.4399 2.07335ZM11.4999 7.04668L6.99986 11.54L2.49986 7.04668C2.10331 6.64848 1.83317 6.14205 1.72334 5.59091C1.61351 5.03977 1.66888 4.46847 1.88249 3.94868C2.09611 3.42889 2.45846 2.98375 2.92409 2.6691C3.38972 2.35445 3.9379 2.18431 4.49986 2.18002C5.2506 2.18186 5.96992 2.48158 6.49986 3.01335C6.56183 3.07584 6.63557 3.12543 6.71681 3.15928C6.79805 3.19313 6.88518 3.21055 6.97319 3.21055C7.0612 3.21055 7.14834 3.19313 7.22958 3.15928C7.31082 3.12543 7.38455 3.07584 7.44652 3.01335C7.99207 2.54061 8.69685 2.29278 9.41822 2.32003C10.1396 2.34729 10.8237 2.64758 11.332 3.16014C11.8403 3.6727 12.1349 4.35924 12.1562 5.08081C12.1774 5.80238 11.9238 6.50508 11.4465 7.04668H11.4999Z" fill="#151875"/>
</svg>
