<svg width="12" height="12" viewBox="0 0 12 12" fill="none" xmlns="http://www.w3.org/2000/svg">
<path d="M10.822 4.60447L7.5361 4.12692L6.06723 1.14907C6.02711 1.06753 5.96111 1.00153 5.87958 0.961413C5.6751 0.860469 5.42663 0.944589 5.32439 1.14907L3.85552 4.12692L0.569652 4.60447C0.479061 4.61741 0.396235 4.66012 0.332821 4.72482C0.256158 4.80362 0.213912 4.90963 0.215368 5.01956C0.216824 5.12949 0.261862 5.23434 0.340586 5.31108L2.71795 7.62891L2.15629 10.9018C2.14312 10.978 2.15154 11.0563 2.18061 11.1279C2.20968 11.1995 2.25822 11.2615 2.32074 11.3069C2.38325 11.3523 2.45724 11.3793 2.53431 11.3848C2.61138 11.3903 2.68845 11.374 2.75678 11.338L5.69581 9.79274L8.63484 11.338C8.71508 11.3807 8.80826 11.3949 8.89756 11.3794C9.12274 11.3406 9.27416 11.127 9.23533 10.9018L8.67367 7.62891L11.051 5.31108C11.1157 5.24766 11.1584 5.16484 11.1714 5.07425C11.2063 4.84777 11.0484 4.63811 10.822 4.60447Z" fill="#B2B2B2"/>
</svg>
