<svg width="12" height="12" viewBox="0 0 12 12" fill="none" xmlns="http://www.w3.org/2000/svg">
<path d="M10.9006 4.60447L7.61472 4.12692L6.14585 1.14907C6.10573 1.06753 6.03973 1.00153 5.95819 0.961413C5.75372 0.860469 5.50524 0.944589 5.403 1.14907L3.93413 4.12692L0.648265 4.60447C0.557674 4.61741 0.474848 4.66012 0.411435 4.72482C0.334771 4.80362 0.292526 4.90963 0.293982 5.01956C0.295438 5.12949 0.340476 5.23434 0.4192 5.31108L2.79657 7.62891L2.2349 10.9018C2.22173 10.978 2.23016 11.0563 2.25922 11.1279C2.28829 11.1995 2.33683 11.2615 2.39935 11.3069C2.46187 11.3523 2.53586 11.3793 2.61293 11.3848C2.69 11.3903 2.76706 11.374 2.83539 11.338L5.77442 9.79274L8.71346 11.338C8.79369 11.3807 8.88687 11.3949 8.97617 11.3794C9.20135 11.3406 9.35277 11.127 9.31394 10.9018L8.75228 7.62891L11.1296 5.31108C11.1944 5.24766 11.2371 5.16484 11.25 5.07425C11.2849 4.84777 11.1271 4.63811 10.9006 4.60447Z" fill="#FFC416"/>
</svg>
