<svg width="14" height="14" viewBox="0 0 14 14" fill="none" xmlns="http://www.w3.org/2000/svg">
<path d="M8.99994 5.66666H6.99994V3.66666C6.99994 3.48985 6.9297 3.32028 6.80467 3.19526C6.67965 3.07024 6.51008 3 6.33327 3C6.15646 3 5.98689 3.07024 5.86187 3.19526C5.73684 3.32028 5.6666 3.48985 5.6666 3.66666V5.66666H3.6666C3.48979 5.66666 3.32022 5.7369 3.1952 5.86193C3.07017 5.98695 2.99994 6.15652 2.99994 6.33333C2.99994 6.51014 3.07017 6.67971 3.1952 6.80473C3.32022 6.92976 3.48979 7 3.6666 7H5.6666V9C5.6666 9.17681 5.73684 9.34638 5.86187 9.4714C5.98689 9.59643 6.15646 9.66666 6.33327 9.66666C6.51008 9.66666 6.67965 9.59643 6.80467 9.4714C6.9297 9.34638 6.99994 9.17681 6.99994 9V7H8.99994C9.17675 7 9.34632 6.92976 9.47134 6.80473C9.59636 6.67971 9.6666 6.51014 9.6666 6.33333C9.6666 6.15652 9.59636 5.98695 9.47134 5.86193C9.34632 5.7369 9.17675 5.66666 8.99994 5.66666ZM13.4733 12.5267L10.9999 10.0733C11.96 8.87627 12.4249 7.35686 12.2991 5.82753C12.1733 4.2982 11.4664 2.87519 10.3236 1.85109C9.18085 0.827001 7.68914 0.279671 6.15522 0.321644C4.62129 0.363618 3.16175 0.991705 2.0767 2.07676C0.991644 3.16181 0.363557 4.62136 0.321583 6.15528C0.27961 7.6892 0.82694 9.18091 1.85103 10.3237C2.87512 11.4664 4.29814 12.1734 5.82747 12.2992C7.3568 12.425 8.87621 11.9601 10.0733 11L12.5266 13.4533C12.5886 13.5158 12.6623 13.5654 12.7436 13.5993C12.8248 13.6331 12.9119 13.6505 12.9999 13.6505C13.0879 13.6505 13.1751 13.6331 13.2563 13.5993C13.3376 13.5654 13.4113 13.5158 13.4733 13.4533C13.5934 13.329 13.6606 13.1629 13.6606 12.99C13.6606 12.8171 13.5934 12.651 13.4733 12.5267ZM6.33327 11C5.41029 11 4.50804 10.7263 3.74061 10.2135C2.97318 9.70074 2.37504 8.97191 2.02183 8.11919C1.66862 7.26646 1.57621 6.32815 1.75627 5.42291C1.93634 4.51766 2.38079 3.68614 3.03344 3.0335C3.68608 2.38085 4.5176 1.9364 5.42285 1.75633C6.32809 1.57627 7.2664 1.66868 8.11913 2.02189C8.97185 2.3751 9.70068 2.97324 10.2135 3.74067C10.7262 4.5081 10.9999 5.41035 10.9999 6.33333C10.9999 7.57101 10.5083 8.75799 9.6331 9.63316C8.75793 10.5083 7.57095 11 6.33327 11Z" fill="#151875"/>
</svg>
